# Blender v2.91.0 OBJ File: 'practice.blend'
# www.blender.org
mtllib asteroid.mtl
o Cube
v -4.000000 -4.000000 8.334940
v -4.000000 4.000000 4.000000
v -4.000000 -4.000000 -4.000000
v -4.000000 4.000000 -4.000000
v 4.000000 -4.000000 4.000000
v 4.000000 4.000000 4.000000
v 4.986842 -4.000000 -6.060905
v 4.000000 4.000000 -4.000000
v -4.000000 0.000000 4.000000
v -4.000000 0.000000 -4.000000
v 4.000000 0.000000 -4.000000
v 8.393773 0.000000 4.000000
v 0.000000 -4.000000 -4.000000
v 0.000000 4.000000 -4.000000
v 0.000000 -4.000000 4.000000
v 0.000000 4.000000 7.822541
v 0.000000 0.000000 6.859906
v 0.000000 0.000000 -7.129976
v -4.000000 -6.302176 0.000000
v -4.000000 7.137104 0.000000
v 6.354151 -4.609029 0.000000
v 4.000000 4.000000 0.000000
v 5.649114 0.000000 0.000000
v -7.822920 0.000000 0.000000
v 0.000000 4.000000 0.000000
v 0.000000 -5.448349 0.000000
v -4.000000 2.000000 4.000000
v -4.000000 2.000000 -4.000000
v 5.636033 2.000000 -5.515769
v 4.000000 2.000000 4.000000
v 0.000000 2.000000 7.822541
v 0.000000 2.000000 -5.693295
v 6.687393 2.000000 0.000000
v -5.654605 2.000000 0.000000
v -4.000000 -2.000000 -4.000000
v 4.000000 -2.000000 -4.000000
v 8.393773 -2.000000 4.000000
v -6.001396 -2.000000 5.412278
v 0.000000 -2.000000 -4.000000
v 0.000000 -2.000000 4.000000
v -7.497796 -2.000000 0.000000
v 6.234913 -2.000000 0.000000
v -4.000000 -7.067335 2.000000
v 4.000000 4.000000 2.000000
v 8.393773 0.000000 2.000000
v 0.000000 5.979202 2.000000
v 0.000000 -5.964462 2.000000
v -4.000000 4.000000 2.000000
v 4.000000 -4.000000 2.000000
v -4.000000 0.000000 2.000000
v -7.319772 2.000000 2.000000
v 5.649114 2.000000 2.000000
v -6.419265 -2.000000 2.000000
v 4.000000 -2.000000 2.000000
v -4.000000 4.000000 -2.000000
v 4.000000 -4.000000 -2.000000
v -8.598816 0.000000 -2.000000
v -4.000000 -6.302176 -2.000000
v 4.000000 4.000000 -2.000000
v 5.649114 0.000000 -2.000000
v 0.000000 5.197550 -2.000000
v 0.000000 -4.000000 -2.000000
v 4.000000 2.000000 -2.000000
v -6.392971 2.000000 -2.000000
v 4.000000 -2.000000 -2.000000
v -6.072861 -2.000000 -2.000000
v 1.991807 4.000000 -4.000000
v 1.991807 -4.000000 4.000000
v 1.991807 0.000000 -4.000000
v 2.978649 -4.000000 -6.060905
v 1.991807 4.000000 4.000000
v 1.991807 0.000000 4.000000
v 1.991807 4.000000 0.000000
v 1.991807 -4.881002 0.000000
v 4.671878 2.000000 6.736279
v 1.991807 2.000000 -4.000000
v 1.991807 -2.000000 6.859906
v 1.991807 -2.000000 -6.826566
v 1.991807 5.814900 2.000000
v 1.991807 -5.964462 2.000000
v 1.991807 -6.397629 -2.000000
v 1.991807 5.197550 -2.000000
v -2.008924 -4.000000 -4.000000
v -2.008924 4.000000 4.000000
v -2.008924 -1.795523 4.000000
v -2.008924 4.000000 -4.000000
v -2.008924 -4.000000 4.000000
v -2.008924 0.000000 -4.000000
v -2.008924 -4.000000 0.000000
v -2.008924 4.000000 0.000000
v -2.008924 2.000000 -5.693295
v -2.008924 2.000000 7.244534
v -2.008924 -2.000000 -6.221261
v -2.008924 -3.244681 8.334940
v -2.008924 -7.067335 2.000000
v -2.008924 5.814900 2.000000
v -2.008924 5.979202 -2.000000
v -2.008924 -6.302176 -2.000000
vt 0.562500 0.187500
vt 0.625000 0.187500
vt 0.625000 0.250000
vt 0.562500 0.250000
vt 0.562500 0.437244
vt 0.625000 0.437244
vt 0.625000 0.500000
vt 0.562500 0.500000
vt 0.562500 0.687500
vt 0.625000 0.687500
vt 0.625000 0.750000
vt 0.562500 0.750000
vt 0.562500 0.937779
vt 0.625000 0.937779
vt 0.625000 1.000000
vt 0.562500 1.000000
vt 0.312244 0.687500
vt 0.375000 0.687500
vt 0.375000 0.750000
vt 0.312244 0.750000
vt 0.812779 0.687500
vt 0.875000 0.687500
vt 0.875000 0.750000
vt 0.812779 0.750000
vt 0.437500 0.937779
vt 0.500000 0.937779
vt 0.500000 1.000000
vt 0.437500 1.000000
vt 0.437500 0.687500
vt 0.500000 0.687500
vt 0.500000 0.750000
vt 0.437500 0.750000
vt 0.437500 0.437244
vt 0.500000 0.437244
vt 0.500000 0.500000
vt 0.437500 0.500000
vt 0.437500 0.187500
vt 0.500000 0.187500
vt 0.500000 0.250000
vt 0.437500 0.250000
vt 0.437500 0.312221
vt 0.500000 0.312221
vt 0.500000 0.375000
vt 0.437500 0.375000
vt 0.437500 0.812756
vt 0.500000 0.812756
vt 0.500000 0.875000
vt 0.437500 0.875000
vt 0.687756 0.687500
vt 0.750000 0.687500
vt 0.750000 0.750000
vt 0.687756 0.750000
vt 0.187221 0.687500
vt 0.250000 0.687500
vt 0.250000 0.750000
vt 0.187221 0.750000
vt 0.562500 0.812756
vt 0.625000 0.812756
vt 0.625000 0.875000
vt 0.562500 0.875000
vt 0.562500 0.312221
vt 0.625000 0.312221
vt 0.625000 0.375000
vt 0.562500 0.375000
vt 0.187221 0.562500
vt 0.250000 0.562500
vt 0.250000 0.625000
vt 0.187221 0.625000
vt 0.687756 0.562500
vt 0.750000 0.562500
vt 0.750000 0.625000
vt 0.687756 0.625000
vt 0.437500 0.062500
vt 0.500000 0.062500
vt 0.500000 0.125000
vt 0.437500 0.125000
vt 0.437500 0.562500
vt 0.500000 0.562500
vt 0.500000 0.625000
vt 0.437500 0.625000
vt 0.812779 0.562500
vt 0.875000 0.562500
vt 0.875000 0.625000
vt 0.812779 0.625000
vt 0.312244 0.562500
vt 0.375000 0.562500
vt 0.375000 0.625000
vt 0.312244 0.625000
vt 0.562500 0.562500
vt 0.625000 0.562500
vt 0.625000 0.625000
vt 0.562500 0.625000
vt 0.562500 0.062500
vt 0.625000 0.062500
vt 0.625000 0.125000
vt 0.562500 0.125000
vt 0.375000 0.062500
vt 0.375000 0.125000
vt 0.375000 0.812756
vt 0.375000 0.875000
vt 0.375000 0.312221
vt 0.375000 0.375000
vt 0.375000 0.187500
vt 0.375000 0.250000
vt 0.375000 0.437244
vt 0.375000 0.500000
vt 0.375000 0.937779
vt 0.375000 1.000000
vt 0.375000 0.000000
vt 0.437500 0.000000
vt 0.500000 0.000000
vt 0.562500 0.000000
vt 0.625000 0.000000
vt 0.312244 0.500000
vt 0.812779 0.500000
vt 0.875000 0.500000
vt 0.687756 0.500000
vt 0.750000 0.500000
vt 0.187221 0.500000
vt 0.250000 0.500000
vt 0.125000 0.500000
vt 0.125000 0.562500
vt 0.125000 0.625000
vt 0.125000 0.687500
vt 0.125000 0.750000
vn -0.7634 0.4567 -0.4567
vn -0.2507 0.2517 -0.9348
vn 0.8639 0.3562 0.3562
vn -0.5347 0.5323 0.6563
vn 0.4020 -0.8219 0.4036
vn -0.3833 0.8411 0.3816
vn 0.1513 0.8234 0.5469
vn 0.5413 -0.5946 -0.5946
vn 0.4983 0.5003 -0.7081
vn -0.4891 -0.3088 -0.8157
vn -0.2154 -0.2163 -0.9523
vn 0.0000 0.0000 1.0000
vn 0.4148 0.8187 0.3971
vn 0.1684 -0.6134 0.7716
vn 0.4304 0.6880 0.5843
vn 0.0000 0.6462 -0.7632
vn 0.2035 -0.9575 0.2044
vn 0.0000 0.8580 0.5137
vn -0.6002 0.3142 0.7355
vn 0.8504 -0.2261 -0.4751
vn 0.2690 0.9252 -0.2678
vn 0.3864 -0.9221 -0.0182
vn 0.7249 0.4871 -0.4871
vn -0.8157 0.5686 0.1063
vn -0.8532 -0.2456 0.4602
vn 0.8235 0.1258 -0.5532
vn -0.6138 -0.0505 -0.7879
vn 0.3365 -0.7509 0.5682
vn -0.6815 -0.3575 0.6386
vn 0.4792 0.8552 0.1976
vn -0.2507 -0.2517 -0.9348
vn -0.4789 0.2641 -0.8372
vn 0.6583 0.0170 -0.7526
vn -0.8389 -0.5298 0.1249
vn -0.5043 -0.5022 0.7025
vn 0.4352 -0.4371 -0.7871
vn -0.7884 -0.2593 -0.5578
vn 0.5045 0.4811 -0.7169
vn 0.1401 -0.3692 0.9187
vn 0.6583 0.0170 0.7526
vn -0.8657 -0.4656 0.1836
vn 0.8562 0.3653 -0.3653
vn -0.6485 -0.5382 0.5382
vn -0.6485 0.5382 0.5382
vn -0.6611 0.7486 0.0510
vn -0.0639 -0.7433 -0.6659
vn 0.0299 0.7252 -0.6879
vn 0.7212 -0.6866 -0.0919
vn 0.3007 0.9055 0.2993
vn 0.3301 -0.9403 0.0828
vn 0.6677 0.7239 0.1733
vn -0.8042 -0.5207 -0.2865
vn 0.9745 0.1587 0.1587
vn -0.6538 0.7150 0.2475
vn 1.0000 0.0024 -0.0024
vn 0.9222 0.2735 0.2735
vn 0.5084 -0.8516 -0.1279
vn -0.4069 0.8187 -0.4051
vn 0.8639 -0.3562 -0.3562
vn 0.0000 0.8580 -0.5137
vn 0.4448 -0.7763 -0.4468
vn -0.8073 -0.5754 -0.1310
vn -0.8484 0.4811 -0.2207
vn 0.2747 0.9211 -0.2758
vn -0.5257 -0.7583 -0.3856
vn 0.1311 -0.9205 -0.3681
vn 0.3805 0.8421 -0.3821
vn -0.6698 -0.2956 -0.6812
vn 0.2242 -0.7177 0.6593
vn 0.7516 0.2230 -0.6208
vn 0.3955 -0.3971 0.8282
vn -0.4174 -0.9086 0.0155
vn 0.2747 0.9211 0.2758
vn 0.6672 0.6699 0.3258
vn 0.3805 0.8421 0.3821
vn 0.1788 0.5722 0.8004
vn 0.0757 -0.0754 -0.9943
vn 0.0000 -0.7134 0.7007
vn 0.3645 0.3630 -0.8575
vn 0.0000 -0.6558 -0.7549
vn 0.1506 0.7742 -0.6148
vn -0.0297 0.7252 -0.6879
vn 0.3852 -0.6663 -0.6384
vn 0.6433 -0.6462 0.4107
vn -0.4383 -0.4364 -0.7858
vn -0.3950 -0.5397 0.7435
vn -0.3646 -0.3630 -0.8575
vn 0.1506 0.7742 0.6148
vn 0.4480 -0.7749 0.4460
vn -0.3646 0.3630 -0.8575
vn 0.5422 -0.6767 0.4981
vn -0.4383 0.4364 -0.7858
vn 0.0400 0.3929 0.9187
vn -0.4119 0.8199 0.3977
vn -0.6479 0.4798 0.5916
usemtl None
s off
f 64/1/1 55/2/1 4/3/1 28/4/1
f 76/5/2 67/6/2 8/7/2 29/8/2
f 52/9/3 44/10/3 6/11/3 30/12/3
f 92/13/4 84/14/4 2/15/4 27/16/4
f 80/17/5 49/18/5 5/19/5 68/20/5
f 96/21/6 48/22/6 2/23/6 84/24/6
f 94/25/7 85/26/7 9/27/7 38/28/7
f 54/29/8 45/30/8 12/31/8 37/32/8
f 78/33/9 69/34/9 11/35/9 36/36/9
f 66/37/10 57/38/10 10/39/10 35/40/10
f 93/41/11 88/42/11 18/43/11 39/44/11
f 77/45/12 72/46/12 17/47/12 40/48/12
f 79/49/13 46/50/13 16/51/13 71/52/13
f 95/53/14 47/54/14 15/55/14 87/56/14
f 75/57/15 71/58/15 16/59/15 31/60/15
f 91/61/16 86/62/16 14/63/16 32/64/16
f 98/65/17 62/66/17 26/67/17 89/68/17
f 82/69/18 61/70/18 25/71/18 73/72/18
f 53/73/19 50/74/19 24/75/19 41/76/19
f 65/77/20 60/78/20 23/79/20 42/80/20
f 97/81/21 55/82/21 20/83/21 90/84/21
f 81/85/22 56/86/22 21/87/22 74/88/22
f 63/89/23 59/90/23 22/91/23 33/92/23
f 51/93/24 48/94/24 20/95/24 34/96/24
f 50/74/25 51/93/25 34/96/25 24/75/25
f 60/78/26 63/89/26 33/92/26 23/79/26
f 88/42/27 91/61/27 32/64/27 18/43/27
f 72/46/28 75/57/28 31/60/28 17/47/28
f 85/26/29 92/13/29 27/16/29 9/27/29
f 45/30/30 52/9/30 30/12/30 12/31/30
f 69/34/31 76/5/31 29/8/31 11/35/31
f 57/38/32 64/1/32 28/4/32 10/39/32
f 56/86/33 65/77/33 42/80/33 21/87/33
f 43/97/34 53/73/34 41/76/34 19/98/34
f 68/99/35 77/45/35 40/48/35 15/100/35
f 83/101/36 93/41/36 39/44/36 13/102/36
f 58/103/37 66/37/37 35/40/37 3/104/37
f 70/105/38 78/33/38 36/36/38 7/106/38
f 49/18/8 54/29/8 37/32/8 5/19/8
f 87/107/39 94/25/39 38/28/39 1/108/39
f 21/87/40 42/80/40 54/29/40 49/18/40
f 1/109/41 38/110/41 53/73/41 43/97/41
f 23/79/42 33/92/42 52/9/42 45/30/42
f 9/111/43 27/112/43 51/93/43 50/74/43
f 27/112/44 2/113/44 48/94/44 51/93/44
f 38/110/45 9/111/45 50/74/45 53/73/45
f 89/68/46 26/67/46 47/54/46 95/53/46
f 73/72/47 25/71/47 46/50/47 79/49/47
f 42/80/48 23/79/48 45/30/48 54/29/48
f 90/84/49 20/83/49 48/22/49 96/21/49
f 74/88/50 21/87/50 49/18/50 80/17/50
f 33/92/51 22/91/51 44/10/51 52/9/51
f 19/98/52 41/76/52 66/37/52 58/103/52
f 7/106/53 36/36/53 65/77/53 56/86/53
f 24/75/54 34/96/54 64/1/54 57/38/54
f 11/35/55 29/8/55 63/89/55 60/78/55
f 29/8/56 8/7/56 59/90/56 63/89/56
f 70/114/57 7/106/57 56/86/57 81/85/57
f 86/115/58 4/116/58 55/82/58 97/81/58
f 36/36/59 11/35/59 60/78/59 65/77/59
f 67/117/60 14/118/60 61/70/60 82/69/60
f 83/119/61 13/120/61 62/66/61 98/65/61
f 41/76/62 24/75/62 57/38/62 66/37/62
f 34/96/63 20/95/63 55/2/63 64/1/63
f 8/7/64 67/117/64 82/69/64 59/90/64
f 13/120/65 70/114/65 81/85/65 62/66/65
f 26/67/66 74/88/66 80/17/66 47/54/66
f 22/91/67 73/72/67 79/49/67 44/10/67
f 13/102/68 39/44/68 78/33/68 70/105/68
f 5/19/69 37/32/69 77/45/69 68/99/69
f 18/43/70 32/64/70 76/5/70 69/34/70
f 12/31/71 30/12/71 75/57/71 72/46/71
f 62/66/72 81/85/72 74/88/72 26/67/72
f 59/90/73 82/69/73 73/72/73 22/91/73
f 30/12/74 6/11/74 71/58/74 75/57/74
f 44/10/75 79/49/75 71/52/75 6/11/75
f 37/32/76 12/31/76 72/46/76 77/45/76
f 39/44/77 18/43/77 69/34/77 78/33/77
f 47/54/78 80/17/78 68/20/78 15/55/78
f 32/64/79 14/63/79 67/6/79 76/5/79
f 3/121/80 83/119/80 98/65/80 58/122/80
f 14/118/81 86/115/81 97/81/81 61/70/81
f 25/71/82 90/84/82 96/21/82 46/50/82
f 19/123/83 89/68/83 95/53/83 43/124/83
f 15/100/84 40/48/84 94/25/84 87/107/84
f 3/104/85 35/40/85 93/41/85 83/101/85
f 17/47/86 31/60/86 92/13/86 85/26/86
f 10/39/87 28/4/87 91/61/87 88/42/87
f 61/70/88 97/81/88 90/84/88 25/71/88
f 58/122/89 98/65/89 89/68/89 19/123/89
f 28/4/90 4/3/90 86/62/90 91/61/90
f 43/124/91 95/53/91 87/56/91 1/125/91
f 35/40/92 10/39/92 88/42/92 93/41/92
f 40/48/93 17/47/93 85/26/93 94/25/93
f 46/50/94 96/21/94 84/24/94 16/51/94
f 31/60/95 16/59/95 84/14/95 92/13/95
