# Blender v2.91.0 OBJ File: 'practice.blend'
# www.blender.org
mtllib freyja.mtl
o Freyja_Cube.012
v 1.079795 -0.507226 0.556310
v 1.079795 0.350901 0.556310
v -1.079795 -0.507226 0.556310
v -1.079795 0.350901 0.556310
v 0.394583 -0.119466 -3.847822
v 0.394583 0.228713 -3.724613
v -0.394584 -0.119466 -3.847822
v -0.394584 0.228713 -3.724613
v -0.882040 -0.228713 1.763022
v 0.882040 -0.228713 1.763022
v 0.882040 0.316801 1.763022
v -0.882040 0.316801 1.763022
v 1.773164 -0.228713 2.842275
v 1.773164 0.218616 1.202973
v -1.773164 0.218616 1.202973
v -1.773164 -0.228713 2.842275
v 2.356738 -0.228713 4.048987
v 1.324962 0.191324 1.698246
v -1.324962 0.191324 1.698246
v -2.356737 -0.228713 4.048987
v -0.262533 -0.509031 3.839023
v 0.262534 -0.509031 3.839023
v 0.638934 0.228713 4.369253
v -0.638934 0.228713 4.369253
v -0.556528 -0.228713 2.223343
v -0.792334 0.228713 3.332932
v 0.792334 0.228713 3.332932
v 0.556528 -0.228713 2.223343
v 0.485821 0.735197 0.556310
v -0.485821 0.735197 0.556310
v 0.334027 0.735197 1.763022
v -0.334027 0.735197 1.763022
v 0.037804 -0.793432 0.556310
v -0.000000 0.553991 -2.801928
v -0.000000 -0.352999 -4.515681
v -0.000000 0.228713 -4.515681
v 0.000000 -0.762777 1.763022
v 0.000000 0.980688 2.540762
v 0.000000 -0.686733 4.707069
v 0.000000 0.503411 5.820288
v 0.000000 -0.751874 3.739402
v 0.000000 0.787144 3.170799
v 0.000000 1.128949 0.556310
v 0.000000 1.141859 1.763022
v 2.620187 0.000000 0.556309
v -2.620187 0.000000 0.556310
v -0.621390 0.085509 -4.515681
v 0.621390 0.085509 -4.515681
v 0.882040 0.000000 1.945528
v -0.882040 0.000000 1.945528
v 4.658138 0.000000 4.223357
v -4.658138 0.000000 4.223357
v 2.620470 -0.000000 6.271453
v -2.620470 -0.000000 6.271453
v 0.865331 0.000000 4.530924
v -0.865331 0.000000 4.530924
v 0.944883 0.000000 2.431347
v -0.944882 0.000000 2.431347
v 0.000000 0.000000 7.347460
v -0.000000 0.000000 -6.475079
vt 0.637499 0.542632
vt 0.601197 0.561798
vt 0.623542 0.628529
vt 0.638779 0.584722
vt 0.610097 0.709018
vt 0.478579 0.492283
vt 0.458980 0.512858
vt 0.403607 0.450741
vt 0.455348 0.453485
vt 0.478579 0.415261
vt 0.458980 0.391566
vt 0.601197 0.351027
vt 0.610097 0.197569
vt 0.224662 0.480299
vt 0.065620 0.491151
vt 0.084290 0.522150
vt 0.230338 0.575453
vt 0.935742 0.344368
vt 0.884054 0.377549
vt 0.929332 0.480443
vt 0.947656 0.366265
vt 0.248732 0.364275
vt 0.252762 0.406367
vt 0.310140 0.432370
vt 0.310992 0.362805
vt 0.256569 0.546477
vt 0.298767 0.627351
vt 0.340999 0.678144
vt 0.929332 0.208292
vt 0.913345 0.172582
vt 0.839887 0.191424
vt 0.857552 0.225516
vt 0.791302 0.916322
vt 0.894719 0.916322
vt 0.897625 0.864786
vt 0.785689 0.881827
vt 0.256536 0.000000
vt 0.256247 0.286876
vt 0.284485 0.225614
vt 0.340770 0.186749
vt 0.717787 0.000000
vt 0.623542 0.282414
vt 0.638779 0.326095
vt 0.777933 0.199615
vt 0.650894 0.539883
vt 0.777933 0.711120
vt 0.256451 0.541781
vt 0.403607 0.689920
vt 0.637499 0.370461
vt 0.918609 0.903204
vt 0.974181 0.896264
vt 0.951567 0.749178
vt 0.955579 0.813861
vt 0.173896 0.211566
vt 0.204445 0.368114
vt 0.858948 0.000000
vt 0.815137 0.066244
vt 0.889202 0.094955
vt 0.924478 0.080040
vt 0.946438 0.549547
vt 0.905468 0.564480
vt 0.889202 0.593780
vt 0.924478 0.608696
vt 0.805931 0.153910
vt 0.905468 0.124255
vt 0.777933 0.828618
vt 0.870775 0.847321
vt 0.817826 0.815998
vt 0.779135 0.799074
vt 0.789459 0.180585
vt 0.947656 0.535934
vt 0.913345 0.516153
vt 0.235300 0.372416
vt 0.235418 0.377111
vt 0.789843 0.243276
vt 0.777933 0.209919
vt 0.884054 0.311186
vt 0.857552 0.463219
vt 0.839887 0.497311
vt 0.789459 0.508150
vt 0.777933 0.478816
vt 0.789843 0.445459
vt 0.805931 0.534825
vt 0.258714 0.470912
vt 0.316163 0.462153
vt 0.342866 0.456843
vt 0.815137 0.622491
vt 0.858948 0.688735
vt 0.947656 0.322470
vt 0.074828 0.446383
vt 0.047726 0.424006
vt 0.000000 0.493624
vt 0.903333 0.777535
vt 0.824969 0.688735
vt 0.947656 0.152801
vt 0.946438 0.139188
vt 0.915946 0.846575
vt 0.918609 0.834661
vt 0.403607 0.433667
vt 0.236726 0.714683
vt 0.368236 0.894437
vt 0.717787 0.909248
vt 0.650894 0.367712
vt 1.000000 0.897099
vt 1.000000 0.688735
vt 0.062626 0.543323
vt 0.000000 0.964316
vt 0.049277 0.960278
vt 0.049277 0.894436
vt 0.015935 0.913766
vn -0.1710 0.9802 0.1003
vn -0.2384 0.9685 -0.0722
vn 0.2231 0.9683 -0.1125
vn 0.2384 0.9685 -0.0722
vn 0.3827 -0.9174 -0.1094
vn 0.4531 0.8836 -0.1177
vn -0.5973 -0.8020 -0.0005
vn -0.1691 -0.9757 0.1396
vn -0.5725 0.8145 0.0944
vn 0.3875 -0.9089 0.1543
vn -0.0956 -0.9945 0.0427
vn 0.0283 0.9989 0.0384
vn 0.3023 0.9356 0.1823
vn -0.4406 -0.8718 0.2141
vn 0.1710 0.9802 0.1003
vn 0.1691 -0.9757 0.1396
vn -0.1742 -0.9841 -0.0339
vn 0.1857 0.9787 -0.0876
vn -0.7003 0.6844 0.2028
vn 0.8146 0.5769 0.0605
vn -0.5584 0.8250 0.0868
vn 0.6758 -0.7369 0.0155
vn 0.6497 -0.7548 0.0902
vn -0.6145 0.7790 0.1248
vn 0.9703 0.2410 0.0230
vn -0.6657 -0.7230 0.1848
vn -0.6980 0.7150 0.0401
vn -0.5798 0.8047 -0.1273
vn 0.5725 0.8145 0.0944
vn 0.6818 0.7289 0.0627
vn -0.6818 0.7289 0.0627
vn 0.5798 0.8047 -0.1273
vn 0.6980 0.7150 0.0401
vn 0.6145 0.7790 0.1248
vn -0.6497 -0.7548 0.0902
vn -0.6758 -0.7369 0.0155
vn 0.5584 0.8250 0.0868
vn 0.7003 0.6844 0.2028
vn -0.3757 -0.9158 0.1422
vn -0.4531 0.8836 -0.1177
vn -0.3647 -0.9251 -0.1058
vn -0.2231 0.9683 -0.1125
vn -0.5722 -0.8109 -0.1228
vn 0.6333 -0.7577 0.1573
vn -0.9703 0.2410 0.0230
vn 0.6657 -0.7230 0.1848
vn 0.5973 -0.8020 -0.0005
vn -0.6333 -0.7577 0.1573
vn 0.1742 -0.9841 -0.0339
vn -0.1857 0.9787 -0.0876
vn -0.3023 0.9356 0.1823
vn 0.4406 -0.8718 0.2141
vn 0.0956 -0.9945 0.0427
vn -0.0283 0.9989 0.0384
vn -0.8146 0.5769 0.0605
vn 0.3247 -0.9356 -0.1387
vn 0.5722 -0.8109 -0.1228
vn -0.3247 -0.9356 -0.1387
usemtl freyja_material
s off
f 12/1/1 4/2/1 15/3/1 19/4/1
f 46/5/2 4/2/2 8/6/2 47/7/2
f 60/8/3 36/9/3 6/10/3 48/11/3
f 48/11/4 6/10/4 2/12/4 45/13/4
f 33/14/5 35/15/5 5/16/5 1/17/5
f 36/18/6 34/19/6 2/20/6 6/21/6
f 58/22/7 25/23/7 21/24/7 56/25/7
f 10/26/8 1/17/8 13/27/8 17/28/8
f 4/29/9 12/30/9 32/31/9 30/32/9
f 33/33/10 1/34/10 10/35/10 37/36/10
f 52/37/11 16/38/11 20/39/11 54/40/11
f 51/41/12 14/42/12 18/43/12 53/44/12
f 50/45/13 12/1/13 19/4/13 54/46/13
f 49/47/14 10/26/14 17/28/14 53/48/14
f 2/12/15 11/49/15 18/43/15 14/42/15
f 3/50/16 9/51/16 20/52/16 16/53/16
f 46/54/17 3/55/17 16/38/17 52/37/17
f 45/13/18 2/12/18 14/42/18 51/41/18
f 59/56/19 40/57/19 24/58/19 56/59/19
f 57/60/20 27/61/20 23/62/20 55/63/20
f 42/64/21 26/65/21 24/58/21 40/57/21
f 41/66/22 28/67/22 22/68/22 39/69/22
f 37/36/23 10/35/23 28/67/23 41/66/23
f 38/70/24 12/30/24 26/65/24 42/64/24
f 49/71/25 11/72/25 27/61/25 57/60/25
f 50/73/26 9/74/26 25/23/26 58/22/26
f 43/75/27 30/32/27 32/31/27 44/76/27
f 34/77/28 4/29/28 30/32/28 43/75/28
f 11/72/29 2/20/29 29/78/29 31/79/29
f 38/80/30 11/72/30 31/79/30 44/81/30
f 12/30/31 38/70/31 44/76/31 32/31/31
f 2/20/32 34/19/32 43/82/32 29/78/32
f 29/78/33 43/82/33 44/81/33 31/79/33
f 11/72/34 38/80/34 42/83/34 27/61/34
f 9/74/35 37/84/35 41/85/35 25/23/35
f 25/23/36 41/85/36 39/86/36 21/24/36
f 27/61/37 42/83/37 40/87/37 23/62/37
f 55/63/38 23/62/38 40/87/38 59/88/38
f 3/55/39 33/14/39 37/84/39 9/74/39
f 8/89/40 4/29/40 34/77/40 36/18/40
f 3/55/41 7/90/41 35/15/41 33/14/41
f 47/7/42 8/6/42 36/9/42 60/8/42
f 7/90/43 47/91/43 60/92/43 35/15/43
f 22/68/44 55/93/44 59/94/44 39/69/44
f 12/30/45 50/95/45 58/96/45 26/65/45
f 10/35/46 49/97/46 57/98/46 28/67/46
f 28/67/47 57/98/47 55/93/47 22/68/47
f 39/86/48 59/99/48 56/25/48 21/24/48
f 1/17/49 45/100/49 51/101/49 13/27/49
f 4/2/50 46/5/50 52/102/50 15/3/50
f 11/49/51 49/103/51 53/44/51 18/43/51
f 9/51/52 50/104/52 54/105/52 20/52/52
f 13/27/53 51/101/53 53/48/53 17/28/53
f 15/3/54 52/102/54 54/46/54 19/4/54
f 26/65/55 58/96/55 56/59/55 24/58/55
f 5/16/56 48/106/56 45/100/56 1/17/56
f 35/107/57 60/108/57 48/109/57 5/110/57
f 3/55/58 46/54/58 47/91/58 7/90/58
